<?xml version="1.0" encoding="UTF-8"?>
<!DOCTYPE svg PUBLIC "-//W3C//DTD SVG 1.1//EN" "http://www.w3.org/Graphics/SVG/1.1/DTD/svg11.dtd">
<!-- Creator: CorelDRAW 2021 (64-Bit) -->
<svg xmlns="http://www.w3.org/2000/svg" xml:space="preserve" width="40px" height="40px" version="1.1" style="shape-rendering:geometricPrecision; text-rendering:geometricPrecision; image-rendering:optimizeQuality; fill-rule:evenodd; clip-rule:evenodd"
viewBox="0 0 1.61 1.61"
 xmlns:xlink="http://www.w3.org/1999/xlink"
 xmlns:xodm="http://www.corel.com/coreldraw/odm/2003">
 <defs>
  <style type="text/css">
   <![CDATA[
    .fil1 {fill:#FCFEFE}
    .fil0 {fill:url(#id0)}
   ]]>
  </style>
  <linearGradient id="id0" gradientUnits="userSpaceOnUse" x1="0.81" y1="0" x2="0.8" y2="1.61">
   <stop offset="0" style="stop-opacity:1; stop-color:#02CAC4"/>
   <stop offset="1" style="stop-opacity:1; stop-color:#00A7DD"/>
  </linearGradient>
 </defs>
 <g id="Layer_x0020_1">
  <metadata id="CorelCorpID_0Corel-Layer"/>
  <rect class="fil0" width="1.61" height="1.61"/>
  <path class="fil1" d="M0.5 0.44c-0.01,0.01 -0.07,0.06 -0.09,0.09 -0.02,0.01 -0.02,0.02 -0.03,0.03 -0.01,0.01 -0.01,0.02 -0.02,0.04 0,0 -0.01,0.01 -0.01,0.01 -0.01,0.01 0,0.01 -0.01,0.02 -0.01,0.02 -0.02,0.04 -0.03,0.06 0,0.02 -0.01,0.05 -0.02,0.07l-0.01 0.12 0 0.02 0.02 0.1 0.03 0.1 0.05 0.08c0.01,0 0,0 0.01,0.01 0.03,0.03 0.05,0.07 0.1,0.08 0.07,0.01 0.11,-0.03 0.13,-0.08 0,-0.03 0,-0.05 0,-0.07 -0.01,-0.01 -0.08,-0.08 -0.08,-0.11 -0.02,-0.02 -0.03,-0.06 -0.03,-0.09l-0.01 -0.08c0.01,-0.03 0.01,-0.05 0.02,-0.08 0.01,-0.03 0.05,-0.08 0.06,-0.1 0.02,-0.02 0.06,-0.05 0.09,-0.07 0.04,-0.02 0.08,-0.03 0.13,-0.03 0.09,0 0.2,0.05 0.22,0.1 0.02,0 0.03,0.03 0.04,0.04 0.02,0.02 0.02,0.04 0.03,0.06l0.02 0.06c0,0.03 0.01,0.08 -0.01,0.1 0,0.03 -0.01,0.07 -0.03,0.09 0,0.02 -0.06,0.09 -0.08,0.1 0,0.02 0,0.04 0,0.06 0.02,0.11 0.13,0.13 0.19,0.06 0.01,-0.01 0.04,-0.05 0.05,-0.05 0.01,-0.03 0.02,-0.04 0.03,-0.06 0.01,-0.02 0.02,-0.04 0.03,-0.05 0.01,-0.05 0.03,-0.08 0.03,-0.14l0.01 -0.05 0 -0.06c0,0 0,0 0,-0.01 -0.01,-0.01 -0.01,-0.03 -0.01,-0.05 0,-0.01 0,0 0,-0.01l-0.04 -0.12c-0.01,-0.01 -0.01,0 -0.01,-0.01l-0.04 -0.06c0,-0.01 0,0 -0.01,-0.02 -0.01,0 -0.01,-0.01 -0.02,-0.01 -0.01,-0.01 -0.01,-0.02 -0.02,-0.03 -0.02,-0.02 -0.05,-0.05 -0.07,-0.06 -0.08,-0.05 -0.18,-0.1 -0.3,-0.1 -0.06,0 -0.13,0.02 -0.18,0.03 -0.05,0.02 -0.09,0.05 -0.13,0.07z"/>
 </g>
</svg>
